<?xml version="1.0" standalone="no"?>
<!DOCTYPE svg PUBLIC "-//W3C//DTD SVG 20010904//EN"
 "http://www.w3.org/TR/2001/REC-SVG-20010904/DTD/svg10.dtd">
<svg version="1.0" xmlns="http://www.w3.org/2000/svg"
 width="275.000000pt" height="98.000000pt" viewBox="0 0 275.000000 98.000000"
 preserveAspectRatio="xMidYMid meet">

<g transform="translate(0.000000,98.000000) scale(0.100000,-0.100000)"
fill="#000000" stroke="none">
<path d="M265 660 c-54 -10 -69 -24 -87 -83 -8 -25 -20 -42 -35 -48 -22 -8
-33 -39 -13 -39 5 0 11 -39 12 -87 l3 -88 43 -3 c37 -3 42 -1 42 17 0 20 6 21
109 21 100 0 109 -2 114 -20 4 -16 14 -20 46 -20 l41 0 0 90 c0 53 4 90 10 90
18 0 10 32 -9 37 -13 3 -26 24 -38 55 -10 28 -27 56 -38 63 -27 17 -138 25
-200 15z m189 -52 c8 -13 18 -35 21 -50 6 -23 3 -28 -18 -33 -32 -8 -243 -2
-252 7 -4 3 2 27 14 52 l20 46 100 0 c93 0 102 -2 115 -22z m-237 -150 c38
-14 47 -44 11 -34 -13 3 -31 6 -40 6 -11 0 -18 8 -18 20 0 23 3 24 47 8z m300
-3 c7 -20 6 -21 -44 -29 -50 -7 -57 6 -15 28 35 20 51 20 59 1z"/>
<path d="M730 652 c-88 -49 -123 -148 -81 -230 40 -79 136 -118 229 -93 47 13
49 17 26 65 -15 29 -20 33 -43 27 -57 -15 -96 9 -107 67 -5 26 -1 36 25 63 28
28 36 31 72 25 37 -6 40 -5 56 29 23 48 10 59 -75 63 -52 2 -75 -1 -102 -16z"/>
<path d="M969 647 c-43 -28 -79 -98 -79 -153 0 -126 138 -215 238 -154 39 24
42 24 42 5 0 -12 13 -15 55 -15 l55 0 0 165 0 165 -60 0 c-34 0 -60 -4 -60
-10 0 -6 -13 -4 -30 5 -44 23 -120 19 -161 -8z m176 -97 c11 -12 19 -36 19
-57 0 -68 -80 -98 -129 -48 -30 30 -32 64 -4 99 26 33 86 37 114 6z"/>
<path d="M1441 644 c-30 -25 -31 -25 -31 -5 0 19 -6 21 -55 21 l-55 0 0 -165
0 -165 55 0 55 0 0 90 c0 49 5 101 12 115 13 29 45 40 89 31 27 -5 31 -2 51
40 27 53 19 64 -49 64 -30 0 -50 -7 -72 -26z"/>
<path d="M1842 650 c-18 -11 -41 -34 -51 -51 l-19 -32 -106 2 -106 2 0 -50 0
-51 98 0 97 0 25 -52 c18 -38 36 -59 65 -75 46 -26 116 -30 158 -9 26 15 27
14 27 -14 0 -42 -43 -73 -93 -67 -21 3 -47 13 -58 23 -19 17 -21 17 -65 -4
-39 -19 -43 -25 -34 -41 41 -78 187 -104 289 -51 57 29 80 80 81 179 l0 74 23
-33 c60 -89 221 -106 308 -33 76 65 80 183 7 249 -90 82 -251 69 -315 -26
l-23 -33 0 52 0 51 -60 0 c-34 0 -60 -4 -60 -10 0 -6 -13 -4 -30 5 -41 21
-118 19 -158 -5z m173 -100 c11 -12 19 -36 19 -57 0 -68 -80 -98 -129 -48 -30
30 -32 64 -4 99 26 33 86 37 114 6z m384 -6 c28 -35 26 -69 -4 -99 -50 -51
-125 -20 -125 52 0 49 23 73 71 73 29 0 42 -6 58 -26z"/>
</g>
</svg>
